<?xml version="1.0" standalone="no"?>
<!DOCTYPE svg PUBLIC "-//W3C//DTD SVG 20010904//EN"
 "http://www.w3.org/TR/2001/REC-SVG-20010904/DTD/svg10.dtd">
<svg version="1.0" xmlns="http://www.w3.org/2000/svg"
 width="260.000000pt" height="260.000000pt" viewBox="0 0 260.000000 260.000000"
 preserveAspectRatio="xMidYMid meet">
<metadata>
Created by potrace 1.11, written by Peter Selinger 2001-2013
</metadata>
<g transform="translate(0.000000,260.000000) scale(0.100000,-0.100000)"
fill="#000000" stroke="none">
<path d="M511 2266 c-29 -36 -444 -744 -443 -756 0 -8 74 -139 165 -290 90
-151 189 -319 221 -372 l56 -97 456 0 456 1 24 41 c14 23 51 89 83 147 84 153
97 176 215 382 l107 186 -134 239 c-235 418 -280 498 -294 514 -12 14 -64 16
-458 16 -308 0 -448 -4 -454 -11z m786 -85 l41 -1 63 -107 c34 -60 105 -180
157 -268 52 -88 103 -173 112 -190 10 -16 27 -46 39 -66 l21 -36 -23 -44 c-12
-24 -96 -177 -186 -339 l-163 -295 -390 0 -390 0 -83 140 c-46 77 -135 228
-198 335 l-115 195 24 47 c13 26 49 89 80 140 31 51 66 109 77 128 10 19 50
87 86 150 37 63 80 136 94 162 18 30 35 48 50 50 17 2 478 1 704 -1z"/>
<path d="M1076 2010 c-7 -8 -27 -40 -45 -71 -35 -63 -34 -64 16 -148 l34 -56
83 0 84 -1 42 71 43 70 -39 73 c-28 52 -44 72 -59 73 -133 4 -147 3 -159 -11z"/>
<path d="M642 1666 c-5 -6 -25 -39 -45 -73 l-35 -61 41 -70 c41 -69 42 -70 87
-74 25 -2 64 -1 88 2 41 5 45 8 82 74 l38 70 -22 40 c-66 115 -51 104 -143
104 -50 0 -86 -5 -91 -12z"/>
<path d="M932 1458 c-10 -18 -29 -51 -41 -73 l-22 -41 41 -72 42 -72 83 0 84
0 42 71 43 71 -22 42 c-12 22 -31 56 -42 74 l-20 32 -84 0 -84 0 -20 -32z"/>
<path d="M608 1261 c-21 -38 -38 -74 -38 -81 0 -10 59 -117 77 -139 2 -3 106
-5 155 -2 10 1 33 31 57 74 l40 72 -26 45 c-15 25 -33 57 -41 73 -13 26 -16
27 -100 27 l-87 0 -37 -69z"/>
<path d="M1785 917 c-7 -18 -17 -45 -20 -60 -12 -45 -22 -40 -42 20 -15 45
-25 59 -41 61 -25 4 -27 13 30 -135 28 -73 45 -65 85 43 18 49 33 90 33 90 0
1 -7 5 -16 8 -10 4 -19 -4 -29 -27z"/>
<path d="M1989 903 c-1 -24 -1 -50 -1 -58 0 -8 0 -33 1 -55 l1 -39 41 4 c23 2
47 9 54 15 20 16 24 47 10 67 -7 10 -11 31 -8 48 6 38 -11 55 -61 59 l-36 2
-1 -43z m64 -6 c-2 -4 -3 -11 -3 -17 0 -5 -7 -10 -15 -10 -8 0 -15 9 -15 19 0
13 6 18 18 17 9 -2 16 -6 15 -9z m16 -73 c10 -9 -11 -34 -29 -34 -15 0 -19 6
-18 25 2 20 6 24 23 19 11 -4 22 -8 24 -10z"/>
<path d="M2175 940 c-4 -6 -8 -130 -6 -165 1 -18 8 -20 51 -21 42 0 50 3 50
18 0 14 -8 18 -35 18 -31 0 -35 3 -33 25 2 21 7 25 35 25 26 0 33 4 33 19 0
15 -7 18 -35 16 -28 -1 -35 1 -33 14 3 16 7 17 48 20 18 1 30 30 13 32 -28 4
-85 3 -88 -1z"/>
<path d="M1886 853 c2 -106 1 -100 19 -100 12 0 15 17 15 94 0 82 -2 93 -18
93 -15 0 -17 -10 -16 -87z"/>
<path d="M2096 693 c-7 -27 -2 -170 7 -179 4 -4 7 38 7 94 0 99 -3 121 -14 85z"/>
<path d="M2413 702 c-21 -3 -22 -7 -20 -95 l2 -91 53 -2 c33 0 51 3 49 10 -2
6 -22 9 -45 7 l-42 -3 0 42 c0 37 2 41 23 40 40 -4 67 0 67 8 0 5 -19 8 -42 8
-41 -1 -43 0 -43 29 0 29 2 30 43 29 23 0 42 3 42 8 0 4 -6 8 -12 9 -7 0 -22
2 -33 3 -11 1 -30 0 -42 -2z"/>
<path d="M1890 604 c0 -61 4 -93 10 -89 6 3 10 25 10 49 l0 42 48 -1 c47 -1
47 -1 48 -35 3 -58 4 -64 11 -56 10 10 11 186 1 186 -4 0 -8 -6 -9 -12 -1 -7
-2 -24 -2 -38 -2 -22 -7 -25 -49 -28 l-48 -3 0 41 c0 22 -4 40 -10 40 -6 0
-10 -39 -10 -96z"/>
<path d="M2173 686 c32 -83 70 -166 75 -162 8 8 72 158 72 168 0 13 -20 9 -20
-4 -1 -7 -13 -40 -28 -72 l-27 -59 -29 71 c-16 40 -33 72 -39 72 -5 0 -7 -6
-4 -14z"/>
</g>
</svg>
